<?xml version="1.0" encoding="UTF-8"?>
<svg id="Capa_1" data-name="Capa 1" xmlns="http://www.w3.org/2000/svg" viewBox="0 0 618.67 373.33">
  <defs>
    <style>
      .cls-1 {
        fill: #fff;
      }
    </style>
  </defs>
  <path class="cls-1" d="m409.65,89.31c4.55,16.29,1.98,25.05.95,35.08.06,2.45,2.75,1.73,7.45,1.04,7.12-1.04,15.71.53,14.93,10.84-.29,3.78-1.17,7.51-1.5,11.29-1.11,12.79-4.75,25.55-1.25,38.41,1.05,3.87,4.52,11.58,9.55,11.54,5.83-.13,8.78-13.35,9.92-19.75,1.59-7.7-.56-16.32.11-22.47,1.51-18.7,6.22-25.8,14.08-38.37,3.54-5.66,7.92-10.39,13.69-13.65,8.66-4.89,24.27,2.01,26.46,11.66,1.3,5.74.92,10.32-.98,16.78-2.45,9.8-14.4,21.87-28.39,22.64-1.98.05-4.11-.87-4.52,5.77-.92,15.07,9.67,28.22,24.75,28.71,8.17.27,14.99-3.7,21.34-8.78,9.67-7.74,16.47-17.58,21.45-28.64,4.5-10,7.77-20.5,9.05-31.48,1.1-9.47.32-18.8-1.85-28.15-1.89-8.13-6.1-14.82-10.88-21.31-2.09-2.83-4.54-1.29-6.59.04-3.41,2.2-6.9,2.45-8.15-1.62-.9-2.9,2.37-5.34,4.78-6.89,5.63-3.62,11.36-1.38,16.79.77,9.27,3.67,15.1,11.66,18.77,19.89,3.49,7.82,6.25,17.2,5.84,27.63-.06,9.52-.52,16.87-2.96,25.19-1.59,5.39-5.47,22.8-18.59,39.05-4.92,4.68-8.85,10.79-14.12,15.38-6.14,5.36-13.42,8.41-21.58,9.71-6.37,1.01-12.86,2.21-19.06.81-10.27-2.33-19.78-6.76-27.66-14.06-2.42-2.24-2.12-.45-2.86,2.05-2.33,7.83-3.87,15.1-13.83,19.14-12.57,3.69-18.71,3.26-27.77-8.23-5.68-7.2-6.25-14.5-6.69-23.61-.35-7.06.86-14.05,1.4-20.9.39-5,1.81-10.99,2.34-15.99.09-.82-1.4-1.5-2.48-1.46-1.38.05-1.49.05-1.56,1.24-1.69,9.68-3.49,14.34-6.01,19.66-2.58,5.44-4.85,8.97-8.35,13.88-3.51,4.92-8.7,7.96-14.21,10.43-2.03.91-2.71,2.48-2.68,4.98.1,9.61-1.07,16.75-5.26,25.58-3.68,8.03-8.49,11.47-14.31,13.71-6.04,2.32-12.41,3.26-18.54.48-3.98-1.8-8.24-3.51-10.69-7.62-.69-1.16-1.58-2.2-2.38-3.3-.72,1.64-.97,4.38-1.64,6.05-1.94,4.79-2.23,9.36-6.36,13.24-4.53,4.26-11.16,8.35-16.96,7.09-6.82-1.48-14.3-3.11-17.25-11.87-1.7-5.03-4.1-14.52-4.51-19.87-.51-6.63-1.43-21.71-2.03-35.96-.69-14.62,2.57-30.45,4.73-45.55.7-4.93,1.57-9.95,3.29-14.59,2.09-5.64,10.27-8.74,15.6-5.96,3.29,1.71,3.05,5.67,2.39,8.82-3.05,14.63-2.25,30.43-2.55,45.16-.18,9.11-1.25,16.11-1.31,25.22-.08,11.84-.52,24.84,1.85,36.6.49,2.41.68,6.09,3.92,6.16,2.77.06,5.12-4.3,5.92-6.75,3.49-10.78,7.45-18.23,8.79-28.85.74-5.82-.64-11.91.15-17.71,1.4-10.28.97-20.96,5.33-30.6,2.04-4.52,3.67-9.42,6.45-14.2,5.77-9.45,12.81-13.65,23.24-11.6,4.71.93,8.06,3.86,11.32,7.21,9.27,9.54,12.4,22.08,12.7,34.91.02.76-.6,5.63,3.11,2.06.85-.82,1.44-1.95,2.05-3,4.64-7.99,9.46-15.86,11.38-25.13.94-4.53-3.05-4.39-5.05-5.68-9.92-6.39-12.09-18.19-13.08-28.37-.72-7.46.4-13.3,4.92-19.96,3.46-5.1,11.54-6.9,17.04-3.86,4.15,2.3,7.21,5.31,8.6,9.86Zm-44.23,95.09c-6.65-1.19-13.33-3.16-17.63-6.78-2.4-1.74-4.22-4.44-4.24-4.07-.83,12.49-.1,27.1,4.75,38.83.86,2.09,1.56,4.39,4.13,4.21,2.34-.17,4.3-1.5,5.19-4.06,1.19-3.39,2.57-6.72,3.97-10.03,2.32-5.46,4.2-18.04,3.84-18.11Zm-10.97-55.17c-4.54-.15-7.87.98-8.99,4.97-.24.85-.46,2.44,1.62,3.13,2.94.98,4,.61,7.12.93,2.64.26,4.65,1.19,5.57,3.77.8,2.25,2.66,5.04.14,6.72-1.72,1.15-4.56.71-6.91.78-1.12.04-5.35-1.06-5.96.31-1.09,2.42.03,5.1.64,7.14,2.21,4.95,6.6,11.95,13.25,14.72,2.07.86,6.17,2.02,6.6.09,1.21-5.41.76-9.46.1-15.02-.78-6.56-4.47-25.8-13.2-27.54Zm137.98-12.54c-.67-2.87-3.9-2.44-4.18-2.13-6.86,5.28-10.04,16.22-13.09,25.33-.4,1.2-1.08,3.35-.33,4.02,1.7,1.21,5.11-2.52,6.36-3.49,1.93-2.03,13.08-16.37,11.24-23.74Zm-91.91-21.55c-1.16-6.61-3.57-6.71-4.24-6.52-1.33.38-1.44,1.69-1.59,2.73-1.07,7.86.99,20.08,3.32,25.88.05.2.33.33.5.49.16-.24.41-.47.45-.73,1.84-6.57,2.38-15.41,1.56-21.86Z"/>
  <path class="cls-1" d="m221.65,183.42c.17,6.59,1.68,11.74.82,19.41-.3,2.65.39,9.7.64,9.98.37-.37,7.22-21.57,10.67-32.77,1.32-4.29,4.33-12.48,10.32-13.55,13.34-2.38,18.96,1.71,23.59,15.68,5.5,16.59,3.24,33.03.75,49.69-1.1,7.39-2.18,14.4-7.87,19.84-8.83,8.44-23.09,9.14-32.88,2.56-2.26-1.52-1.6,2.33-1.75,3.31-2.39,15.54.2,32.04,3.91,47.12,2.63,6.96-.53,11.25-2.81,12.16-11.59,4.66-14.66-.5-17.37-11.25-1.53-6.1-4.6-15.69-5.14-22.12-.83-9.95-1.99-15.92-3.1-25.84-.04-.34-.34-.66-.53-.98-4.86,8.39-13.09,13.23-17.6,14.5-9.79,2.77-18.65-.37-26.67-4.41-1.92-1.02-3.66,4.27-4.7,6.52-5.73,12.35-12.82,23.12-22.72,32.67-11.66,11.24-27.21,12.03-41.17,9.9-12.48-1.9-21-9.15-28.65-19.9-7.12-9.99-9.51-23.68-8.76-35.42.81-12.53,4.03-21.78,9-33.4,6.45-15.06,15.88-22.6,31.3-26.52,12.13-1.71,20.74,4.9,23.47,14.56,1.49,7.04,2.76,12.56,1.93,19.77-1.85,16.07-6.87,30.44-21.08,40.3-5.87,4.07-11.71,6.13-18.76,5.33-2.69-.3-.99,1.91-.73,2.52,4.4,10.61,11.92,18.79,24.41,20.39,5.11.65,11.29-1.74,15.74-5.04,7.58-5.63,10.96-10.5,15.82-18.31,4.52-7.26,7.99-15.3,10.99-23.34,1.06-2.82-2.95-5.29-4.8-7.69-5.79-7.51-7.09-16.35-8.43-25.25-.31-2.02-.58-4.08-1.23-6-1.86-5.55,1.23-8.52,5.73-9.88,5.52-1.67,9.69,1.77,11.4,6.62,2.29,6.45,4.42,16.38,6.78,20.05.35-.72.82-1.41,1.04-2.17,1.53-5.21,12.38-25.06,14.97-30.21,2.21-4.41,5.67-7.71,10.09-10.46,1.8-1.12,3.48-.42,5.2-.19,4.49.58,5.43,3.88,5.58,7.64.17,4.26-4.81,3.26-5.34,3.06-4.61-1.71-4.85,2.66-5.92,4.45-5.69,9.51-8.25,19.54-11.74,28.56-.79,3.4-2.45,8.77-3.09,12.18-1.28,6.86,3.57,9.16,8.82,11.47,9.99,4.39,15.16-.66,20.07-7.78,9.09-13.18,8.53-28.21,9.39-43.15.59-10.1-.17-20.4,2.64-30.25.95-3.35,4.85-4.75,7.95-4.57,7.54.45,8.6,2.03,9.78,10.17Zm-147.75,81.1c.64,3.48,4.26,2.01,5.79,1.03,6.37-4.09,9.96-7.8,13.86-14.1,5.14-8.31,6.93-14.45,8.82-24.28.96-5.01.8-9.28-.33-13.55-.44-1.68-3.55-4.78-6.82-3.83-3.96,1.42-5.1,2.58-7.43,5.9-6.46,9.2-9.76,18.51-11.74,29.44-1.14,6.29-2.28,11.69-2.15,19.39Zm175.44-81.71c-.49-1.67-.38-4.08-2.56-4.25-1.93-.15-1.99,2.28-2.77,3.62-2.39,4.11-8.95,26.03-10.03,32.78-.61,3.81-2.92,21.4-.02,26.02,1.93,3.08,5.22,5.69,8.6,5.47,6.66-.63,8.19-21.45,9.08-29.43,1.49-15,.5-21.52-2.3-34.21Z"/>
</svg>