<?xml version="1.0" encoding="UTF-8"?>
<svg id="Capa_1" data-name="Capa 1" xmlns="http://www.w3.org/2000/svg" xmlns:xlink="http://www.w3.org/1999/xlink" viewBox="0 0 330.67 1002.67">
  <defs>
    <style>
      .cls-1 {
        fill: #fff;
      }

      .cls-2 {
        clip-path: url(#clippath-1);
      }

      .cls-3 {
        clip-path: url(#clippath);
      }

      .cls-4 {
        fill: none;
      }
    </style>
    <clipPath id="clippath">
      <rect class="cls-4" x="-250.29" y="31.13" width="186.52" height="922.54"/>
    </clipPath>
    <clipPath id="clippath-1">
      <rect class="cls-4" x="72.07" y="40.07" width="186.52" height="922.54"/>
    </clipPath>
  </defs>
  <g class="cls-3">
    <path class="cls-1" d="m110.41,909.56l-303.06-205.72L110.41,498.14v-45.48h-38.69c2.56-3.76,5.01-7.54,7.34-11.29,8.62-13.97,16.02-28.79,22-44.03,2.11-5.31,3.8-10.92,5.45-16.35l.28-.93c9.84-29.07,14.83-59,14.83-88.97C121.62,137.55-3.29,12.64-156.84,12.64s-278.48,124.91-278.48,278.45c0,49.78,13.64,98.94,39.27,141.83,3.76,7.28,7.31,13.81,10.76,19.74h-36.39v49.02H-140.78v-222.08h-46.81v173.9h-140.06c-7.11-8.71-13.94-18.7-20.31-29.72-2.2-3.82-4.29-7.98-6.31-12.01l-.85-1.64c-21.74-36.13-33.23-77.29-33.23-119.03,0-127.65,103.85-231.49,231.5-231.49s231.5,103.85,231.5,231.49c0,58.69-22.22,114.78-62.56,157.91-.76.82-1.5,1.65-2.24,2.49-.34.39-.68.77-1.03,1.16h-125.55v49.02H17.02l-286.36,196.83v9.22l120.6,82.88v113.91h-272.94v50.53H110.41v-45.48Zm-93.4-5.05h-115.23v-79.18l115.23,79.18Z"/>
  </g>
  <g class="cls-2">
    <g>
      <path class="cls-1" d="m74,676.01c8.48-8.25,15.32-18.06,20.31-29.14,10.26-22.57,10.29-51.94.07-74.83-5.03-11.25-12.01-21.22-20.76-29.62-8.69-8.35-18.82-14.9-30.08-19.46-11.45-4.67-23.44-6.94-36.65-6.94s-24.77,2.33-36.04,6.92c-11.3,4.58-21.36,11.11-29.89,19.41-8.53,8.31-15.37,18.12-20.34,29.16-5.15,11.36-7.76,23.94-7.76,37.38s2.6,26.05,7.73,37.45c5.01,11.24,11.99,21.2,20.74,29.6,8.7,8.35,18.83,14.9,30.1,19.48,11.28,4.59,23.6,6.92,36.63,6.92s24.76-2.33,36.04-6.92c11.3-4.58,21.36-11.11,29.91-19.41Zm-66.53-21.44h-.58c-6.66,0-13.02-1.17-18.91-3.47-5.83-2.27-10.9-5.43-15.09-9.39-4.17-3.92-7.55-8.73-10.05-14.3-4.85-10.72-4.88-24.76-.07-35.77,2.42-5.54,5.82-10.43,10.11-14.55,4.27-4.11,9.44-7.38,15.37-9.75,5.98-2.39,12.46-3.55,19.81-3.55,6.7,0,13.07,1.16,18.93,3.45,5.82,2.28,10.9,5.44,15.1,9.41,4.14,3.89,7.52,8.69,10.04,14.27,2.47,5.5,3.67,11.37,3.67,17.97s-1.21,12.36-3.59,17.79c-2.49,5.67-5.8,10.44-10.07,14.56-4.4,4.2-9.43,7.39-15.41,9.77-5.91,2.36-12.39,3.56-19.24,3.56Z"/>
      <path class="cls-1" d="m432.77,918.49l-303.06-205.72,303.06-205.7v-45.48h-38.69c2.56-3.76,5.01-7.54,7.34-11.29,8.62-13.97,16.02-28.79,22-44.03,2.11-5.31,3.8-10.92,5.45-16.35l.28-.93c9.84-29.07,14.83-59,14.83-88.97,0-153.54-124.91-278.45-278.46-278.45S-112.95,146.49-112.95,300.02c0,49.78,13.64,98.94,39.27,141.83,3.76,7.28,7.31,13.81,10.76,19.74h-36.39v49.02H181.58v-222.08h-46.81v173.9H-5.28c-7.11-8.71-13.94-18.7-20.31-29.72-2.2-3.82-4.29-7.98-6.31-12.01l-.85-1.64c-21.74-36.13-33.23-77.29-33.23-119.03,0-127.65,103.85-231.49,231.5-231.49s231.5,103.85,231.5,231.49c0,58.69-22.22,114.78-62.56,157.91-.76.82-1.5,1.65-2.24,2.49-.34.39-.68.77-1.03,1.16h-125.55v49.02h133.76L53.02,707.44v9.22l120.6,82.88v113.91H-99.32v50.53H432.77v-45.48Zm-93.4-5.05h-115.23v-79.18l115.23,79.18Z"/>
    </g>
  </g>
</svg>