<?xml version="1.0" encoding="UTF-8"?>
<svg id="Capa_1" data-name="Capa 1" xmlns="http://www.w3.org/2000/svg" xmlns:xlink="http://www.w3.org/1999/xlink" viewBox="0 0 658.67 242.67">
  <defs>
    <style>
      .cls-1, .cls-2 {
        fill: #fff;
      }

      .cls-3 {
        fill: #e52629;
      }

      .cls-4 {
        clip-path: url(#clippath);
      }

      .cls-5 {
        fill: none;
      }

      .cls-2 {
        font-family: Gotham-Book, Gotham;
        font-size: 25.78px;
        letter-spacing: .13em;
      }
    </style>
    <clipPath id="clippath">
      <rect class="cls-5" x="276.22" y="-155.25" width="102.26" height="505.78" transform="translate(229.72 424.99) rotate(-90)"/>
    </clipPath>
  </defs>
  <g class="cls-4">
    <g>
      <path class="cls-3" d="m423.12,147.71c-4.52-4.65-9.9-8.4-15.98-11.14-12.37-5.62-28.48-5.64-41.03-.04-6.17,2.76-11.63,6.59-16.24,11.38-4.58,4.76-8.17,10.32-10.67,16.49-2.56,6.28-3.8,12.85-3.8,20.09s1.28,13.58,3.8,19.76c2.51,6.2,6.09,11.71,10.64,16.39,4.55,4.67,9.93,8.43,15.99,11.15,6.23,2.82,13.12,4.25,20.49,4.25s14.28-1.43,20.53-4.24c6.16-2.75,11.63-6.58,16.23-11.37,4.58-4.77,8.17-10.32,10.68-16.5,2.52-6.18,3.79-12.94,3.79-20.08s-1.28-13.58-3.79-19.76c-2.51-6.2-6.09-11.71-10.64-16.4Zm-11.75,36.47v.32c0,3.65-.64,7.14-1.9,10.37-1.25,3.2-2.98,5.98-5.15,8.27-2.15,2.29-4.78,4.14-7.84,5.51-5.88,2.66-13.58,2.68-19.61.04-3.04-1.33-5.72-3.19-7.98-5.54-2.25-2.34-4.05-5.17-5.34-8.42-1.31-3.28-1.95-6.83-1.95-10.86,0-3.67.64-7.17,1.89-10.38,1.25-3.19,2.98-5.98,5.16-8.28,2.13-2.27,4.76-4.12,7.82-5.5,3.01-1.36,6.24-2.01,9.85-2.01s6.78.66,9.75,1.97c3.11,1.37,5.72,3.18,7.98,5.52,2.3,2.41,4.05,5.17,5.35,8.45,1.3,3.24,1.95,6.79,1.95,10.55Z"/>
      <path class="cls-1" d="m556.06-48.99l-112.78,166.15-112.77-166.15h-24.94v21.21c-2.06-1.4-4.13-2.75-6.19-4.02-7.66-4.73-15.78-8.79-24.14-12.06-2.91-1.16-5.99-2.09-8.96-2.99l-.51-.15c-15.94-5.4-32.35-8.13-48.78-8.13-84.18,0-152.66,68.48-152.66,152.66s68.48,152.67,152.66,152.67c27.29,0,54.24-7.48,77.76-21.53,3.99-2.06,7.57-4.01,10.82-5.9v19.95h26.87V88.73h-121.75v25.66h95.34v76.79c-4.77,3.9-10.25,7.64-16.29,11.14-2.09,1.21-4.38,2.35-6.58,3.46l-.9.46c-19.81,11.92-42.37,18.22-65.26,18.22-69.98,0-126.92-56.94-126.92-126.92S147.01-29.38,216.99-29.38c32.18,0,62.93,12.18,86.58,34.3.45.42.91.82,1.37,1.23.21.19.42.37.63.56v68.83h26.87V2.21l107.91,156.99h5.06l45.44-66.12h62.45v149.64h27.7V-48.99h-24.94Zm-2.77,51.2v63.17h-43.41l43.41-63.17Z"/>
    </g>
  </g>
  <text class="cls-2" transform="translate(74.46 191.8)"><tspan x="0" y="0">THE GALLERY OF MODERN ART</tspan></text>
</svg>